<svg xmlns="http://www.w3.org/2000/svg" viewBox="0 0 256 256" role="img" aria-label="öÖëüÙêüÕ¡üà">
  <circle cx="128" cy="128" r="128" fill="#ffffff"/>
  <circle cx="128" cy="128" r="118" fill="none" stroke="#0A3556" stroke-width="3"/>
  <defs>
    <path id="arc-top" d="M46,108 A86,86 0 0 1 210,108"/>
    <path id="arc-sub" d="M62,128 A70,70 0 0 1 194,128"/>
  </defs>
  <text fill="#0A3556" font-family="Nunito, Arial, sans-serif" font-size="20" font-weight="800" letter-spacing="1.5">
    <textPath href="#arc-top" startOffset="50%" text-anchor="middle">FUKUSHIMA</textPath>
  </text>
  <text fill="#0A3556" font-family="Nunito, Arial, sans-serif" font-size="11" font-weight="800" letter-spacing="0.8">
    <textPath href="#arc-sub" startOffset="50%" text-anchor="middle">BLUEBERRY FARM</textPath>
  </text>
  <g fill="#0A3556" stroke="#0A3556" stroke-linejoin="round">
    <path d="M78 96h8v-14l8-7 8 7v14h8" fill="none" stroke-width="2.2"/>
    <path d="M70 118 V96 h22 v22" fill="none" stroke-width="2.2"/>
    <path d="M108 118 V92 h26 v26" fill="none" stroke-width="2.2"/>
    <path d="M112 92 l13-12 13 12" fill="none" stroke-width="2.2"/>
    <path d="M148 118 V100 h16 v18" fill="none" stroke-width="2.2"/>
    <path d="M150 100 l8-8 8 8" fill="none" stroke-width="2.2"/>
    <path d="M168 86 v32 M168 92 h7 M171 98 h6 M169 104 h5" fill="none" stroke-width="2"/>
    <path d="M58 78 c6-16 16-16 20 0 c-6 2-14 2-20 0z" fill="#0A3556" stroke="none"/>
    <path d="M186 74 c5-14 14-14 18 0 c-5 2-13 2-18 0z" fill="#0A3556" stroke="none"/>
    <path d="M196 96 v22" fill="none" stroke-width="2"/>
    <path d="M62 132c18-6 28-2 40-8M108 124c16-6 26-2 36-8M150 128c14-5 24-2 34-7M70 142c20-4 34 0 48-6M124 138c18-4 30 0 42-5M78 152c16-3 28 0 40-4M126 150c14-3 24 0 36-4" fill="none" stroke-width="1.7" stroke-linecap="round"/>
    <path d="M64 78 h10 M64 86 h8 M186 70 h8 M188 78 h10" fill="none" stroke-width="1.6" stroke-linecap="round"/>
  </g>
  <g fill="none" stroke="#0A3556" stroke-width="2.2" stroke-linecap="round">
    <path d="M74 70 h-12 v12"/>
    <path d="M182 70 h12 v12"/>
    <path d="M74 168 h-12 v-12"/>
    <path d="M182 168 h12 v-12"/>
  </g>
  <g transform="translate(128 188)">
    <path d="M-6 -28c8-10 18-8 22 0-8 2-16 1-22 0z" fill="#0A3556"/>
    <path d="M8 -30c8-8 16-6 18 2-8 1-14 0-18-2z" fill="#0A3556"/>
    <circle cx="-16" cy="-6" r="11" fill="#0A3556"/>
    <circle cx="2" cy="-10" r="12" fill="#0A3556"/>
    <circle cx="18" cy="-2" r="10" fill="#0A3556"/>
    <circle cx="-4" cy="6" r="11" fill="#0A3556"/>
    <path d="M-20 -12c3 2 4 2 6 0M-2 -16c3 2 5 2 7 0M14 -8c2 2 4 2 6 0" stroke="#fff" stroke-width="1.2" opacity=".35"/>
  </g>
</svg>
